<?xml version="1.0" encoding="utf-8"?>
<!-- Generator: Adobe Illustrator 27.5.0, SVG Export Plug-In . SVG Version: 6.00 Build 0)  -->
<svg version="1.1" xmlns="http://www.w3.org/2000/svg" xmlns:xlink="http://www.w3.org/1999/xlink" x="0px" y="0px"
	 viewBox="0 0 500 500" style="enable-background:new 0 0 500 500;" xml:space="preserve">
<g id="BACKGROUND">
</g>
<g id="OBJECTS">
	<g>
		<g>
			<g>
				<path style="fill:#4E3D78;" d="M376.693,305.551h-91.988c-3.016,0-5.461-2.445-5.461-5.461l0,0c0-3.016,2.445-5.461,5.461-5.461
					h91.988c3.016,0,5.461,2.445,5.461,5.461l0,0C382.154,303.106,379.709,305.551,376.693,305.551z"/>
				<path style="fill:#E8904D;" d="M360.303,284.8h-79.741c-3.238,0-5.862-2.625-5.862-5.862l0,0c0-3.238,2.625-5.862,5.862-5.862
					h79.741V284.8z"/>
				<path style="fill:#FFE298;" d="M374.977,284.8h-55.775c-3.238,0-5.862-2.625-5.862-5.862l0,0c0-3.238,2.625-5.862,5.862-5.862
					h55.775c0,0-4.436,0-4.669,5.862C370.076,284.8,374.977,284.8,374.977,284.8z"/>
				<path style="fill:#D05234;" d="M381.907,294.628h-83.643V284.8h83.643c2.714,0,4.914,2.2,4.914,4.914l0,0
					C386.821,292.428,384.621,294.628,381.907,294.628z"/>
				<path style="fill:#BB4D33;" d="M325.785,294.628h-31.018V284.8h31.018c2.714,0,4.914,2.2,4.914,4.914l0,0
					C330.699,292.428,328.499,294.628,325.785,294.628z"/>
				<g>
					<path style="fill:#2C1A52;" d="M387.129,266.551h-92.363v-61.309c0-4.278,3.468-7.746,7.746-7.746h76.871
						c4.278,0,7.746,3.468,7.746,7.746V266.551z"/>
					<path style="fill:#2C1A52;" d="M387.129,273.075H268.571c-3.488,0-6.316-2.828-6.316-6.316v-0.208h124.874V273.075z"/>
					<path style="fill:#B7DAF2;" d="M379.301,264.348h-77.512c-2.221,0-4.022-1.801-4.022-4.022v-56.052
						c0-2.221,1.801-4.022,4.022-4.022h77.512c2.221,0,4.022,1.801,4.022,4.022v56.052
						C383.324,262.547,381.523,264.348,379.301,264.348z"/>
				</g>
			</g>
			<g>
				<defs>
					
						<ellipse id="XMLID_6_" transform="matrix(0.9871 -0.1602 0.1602 0.9871 -32.8193 57.5494)" cx="340.545" cy="232.339" rx="27.181" ry="27.181"/>
				</defs>
				<use xlink:href="#XMLID_6_"  style="overflow:visible;fill:#FFFFFF;"/>
				<clipPath id="XMLID_00000134214005445879841060000016210853586150267529_">
					<use xlink:href="#XMLID_6_"  style="overflow:visible;"/>
				</clipPath>
				<g style="clip-path:url(#XMLID_00000134214005445879841060000016210853586150267529_);">
					<path style="fill:#2C1A52;" d="M346.076,236.694c4.455,0.212,7.159-2.862,8.091-10.549c0.606-5.003-1.416-11.39-5.674-8.197
						c0-3.065-2.448-4.897-8.208-4.812c-4.036,0.059-7.123-5.294-10.846-3.151c-2.555,1.47,0.152,6.978,0.152,6.978
						s-1.123,0.424-4.518,0c-0.212,6.365,5.554,7.497,5.554,7.497s-1.508,6.262,3.708,5.516"/>
					<path style="fill:#E8904D;" d="M335.293,247.755c0,0-8.09,3.3-8.942,8.303c-0.852,5.003,0,9.155,0,9.155l13.945,5.322
						l16.18-4.662c0,0,2.023-7.154,1.81-11.092c-0.213-3.939-8.09-7.451-8.09-7.451L335.293,247.755z"/>
					<path style="fill:#FFBAA8;" d="M350.728,231.468c0.875-2.658-0.518-5.354-3.081-4.222c-1.09,0.482-0.964,5.286-0.964,5.286
						c-1.889,0.756-3.05-3.558-3.05-3.558l0.62-4.932l-6.083-1.163l0.596,1.7l-6.14-1.232c0,0-0.147,2.309-0.63,6.485
						c0,0-1.763,10.515,4.092,12.215c0.811,0.236,1.634,0.333,2.451,0.333l-0.692,3.671l-2.555,1.703c0,0,0.414,6.068,5.423,6.174
						c5.009,0.106,9.48-6.6,9.48-6.6l-2.342-1.597l0.574-12.667C348.429,233.065,350.184,233.122,350.728,231.468z"/>
					<path style="fill:#FD9C93;" d="M335.131,228.974c0,0-1.967,4.41-1.192,4.947c0.775,0.536,2.682,0,2.682,0L335.131,228.974z"/>
					<ellipse style="fill:#2C1A52;" cx="338.563" cy="229.544" rx="0.596" ry="0.864"/>
					<ellipse style="fill:#2C1A52;" cx="333.163" cy="229.544" rx="0.596" ry="0.864"/>
					<path style="fill:#2C1A52;" d="M332.193,227.126c0.235,0.686,1.94,0.402,1.94-0.323
						C334.133,226.078,331.958,226.44,332.193,227.126z"/>
					<path style="fill:#2C1A52;" d="M337.59,226.76c-0.033,0.724,1.657,1.086,1.923,0.411
						C339.78,226.497,337.623,226.036,337.59,226.76z"/>
					<path style="fill:#FFFFFF;" d="M332.867,234.756c0,0,2.513,0.993,5.304-0.113C337.992,237.801,333.463,237.914,332.867,234.756
						z"/>
					<path style="fill:#FD9C93;" d="M342.234,232.828c0,0.849-0.688,1.538-1.538,1.538s-1.538-0.688-1.538-1.538
						s0.688-1.538,1.538-1.538S342.234,231.979,342.234,232.828z"/>
					<path style="fill:#FD9C93;" d="M347.638,229.738c0.024-0.413,0.125-0.83,0.359-1.171c0.233-0.341,0.61-0.598,1.023-0.622
						c0.413-0.024,0.845,0.219,0.983,0.608c0.042,0.117,0.056,0.248,0.01,0.363c-0.046,0.115-0.163,0.206-0.287,0.194
						c-0.146-0.014-0.243-0.152-0.363-0.236c-0.172-0.119-0.407-0.124-0.598-0.04c-0.191,0.084-0.34,0.247-0.437,0.432
						c-0.176,0.336-0.186,0.753-0.026,1.097c0.168,0.363,0.506,0.634,0.634,1.013c0.035,0.105,0.052,0.225-0.002,0.322
						c-0.312,0.56-0.878-0.236-1.009-0.494C347.697,230.755,347.609,230.238,347.638,229.738z"/>
					<path style="fill:#FD9C93;" d="M349.038,230.404c0.072-0.009,0.144-0.059,0.154-0.131c0.009-0.064-0.032-0.125-0.077-0.171
						c-0.265-0.274-0.536-0.408-0.739-0.752c-0.115-0.195-0.142-0.306-0.284-0.07C347.757,229.838,348.513,230.467,349.038,230.404z
						"/>
					<path style="fill:#FD9C93;" d="M338.54,242.381c0,0,3.259,0.223,6.135-3.285c-0.115,2.704-4.725,5.943-6.504,5.244
						C338.192,244.23,338.54,242.381,338.54,242.381z"/>
				</g>
			</g>
			<path style="fill:#FFFFFF;" d="M379.34,207.889c0,2.731-2.214,4.946-4.946,4.946s-4.946-2.214-4.946-4.946
				c0-2.731,2.214-4.945,4.946-4.945S379.34,205.158,379.34,207.889z"/>
			<path style="fill:#FFFFFF;" d="M379.34,221.101c0,2.731-2.214,4.946-4.946,4.946s-4.946-2.214-4.946-4.946
				c0-2.731,2.214-4.945,4.946-4.945S379.34,218.369,379.34,221.101z"/>
		</g>
		<g>
			<g>
				<path style="fill:#FFE298;" d="M244.46,436.369l10.16,9.456l27.016-24.784c0,0-3.685-3.431-11.47,0.382
					c-7.785,3.813-14.014,6.227-14.014,6.227l-5.02-3.06"/>
				<path style="fill:#2C1A52;" d="M109.909,340.296c2.416,0.184,134.358,97.94,134.358,97.94s6.546-2.678,10.354-12.903
					c-4.802-9.521-52.105-82.828-131.682-112.461"/>
			</g>
			<g>
				<path style="fill:#529BCF;" d="M185.215,217.776c-1.757,12.236-1.11,24.813,1.893,36.805
					c-4.951-13.324-6.158-28.017-3.448-41.971"/>
				<path style="fill:#FFBAA8;" d="M232.841,237.103l7.483-8.072c0,0-0.761-7.26-0.813-9.684c-0.029-1.341,1.171-8.622,1.751-9.181
					c1.351-1.301,3.028,0.711,3.028,0.711l0.419,8.134c0,0,3.799-13.93,4.191-14.714s2.629-0.27,3.021,0.71
					c0.392,0.979-1.65,9.279-1.65,9.279s4.712-8.613,5.172-9.027c0.839-0.755,2.683,0.335,2.683,2.012
					c0,0.791-4.323,8.649-4.323,8.649s3.323-2.209,3.91-2.314s4.309,0.483,4.309,1.462c0,0.979-0.547,2.003-0.547,2.003
					l-3.185-0.274l-1.109,1.341c0,0,2.514,1.1,3.21,1.627c0.715,0.542,2.116,2.516,1.823,3.137l-1.91,0.893l-1.807-1.477h-2.35
					c0,0,0.392,11.356-5.29,13.661l-10.183,9.74"/>
				<path style="fill:#529BCF;" d="M122.225,256.895c-6.988,0.154-14.263-2.768-19.694-9.633c-4.337-5.482-6.735-20.302,2.48-27.285
					c11.363-8.611,27.915-6.338,35.064-15.406c6.104-7.743,4.664-18.788,8.661-27.801c4.053-9.141,15.062-17.665,23.256-10.263
					c6.589-10.175,12.397-10.569,24.247-8.016c13.77,2.966,27.478,18.978,22.264,33.161c-2.841,7.728-12.368,16.836-27.725,13.845
					c-3.65-0.711-1.898,0.605-5.415,1.814c-2.808,22.418-6.473,29.327-3.03,41.782c4.305,15.574-12.096,8.177-21.063,10.621
					c-8.968,2.444-19.151-8.171-28.383-9.252"/>
				<path style="fill:#3F90CA;" d="M145.275,205.77c-6.071,4.562-12.948,7.904-19.58,11.603c-3.764,2.099-7.582,4.434-9.993,8.006
					c-4.259,6.311-3.09,14.68-1.753,22.176c3.88-8.138,14.031-12.691,22.689-10.178c4.617,1.34,8.581,4.362,13.133,5.909
					c6.648,2.26,19.212,5.737,20.251-1.296c1.914-12.959,5.391-25.87,11.19-34.432c-3.786-3.049-3.324-9.254-6.712-12.74
					c-0.352-0.362-0.758-0.698-1.245-0.834c-3.07-0.858-3.358,4.234-5.254,5.349c-2.897,1.704-5.519-2.578-7.953-3.782
					c-3.226-1.596-4.48-0.125-6.573,2.375C151.025,200.854,148.332,203.473,145.275,205.77z"/>
				<path style="fill:#3F90CA;" d="M176.736,219.571c-2.488,7.506-3.705,15.431-3.583,23.337c1.669-8.68,3.969-17.268,7.412-25.408
					c0.19-0.449,0.384-0.897,0.577-1.345"/>
				<g>
					<defs>
						<path id="XMLID_7_" d="M156.53,235.245l49.71,20.871l31.706-26.387l10.272,10.217c0,0-34.345,38.265-37.997,39.195
							c-3.652,0.931-60.587-17.237-60.587-17.237L156.53,235.245z"/>
					</defs>
					<use xlink:href="#XMLID_7_"  style="overflow:visible;fill:#BB4D33;"/>
					<clipPath id="XMLID_00000095327371995964365710000014603081957541324689_">
						<use xlink:href="#XMLID_7_"  style="overflow:visible;"/>
					</clipPath>
					<path style="clip-path:url(#XMLID_00000095327371995964365710000014603081957541324689_);fill:#9E472C;" d="M197.557,267.363
						c2.552,0.836,5.177,1.682,7.858,1.527c2.888-0.167,5.569-1.477,8.16-2.763c15.466-7.676,30.933-15.353,46.399-23.029
						c-13.532,16.413-29.364,30.926-46.888,42.984c-2.417,1.663-4.942,3.313-7.809,3.935c-2.419,0.525-4.933,0.285-7.391-0.007
						c-22.238-2.645-49.699-8.945-68.017-22.439c3.593-13.303,8.487-18.879,22.052-15.125
						C167.29,256.698,182.393,262.423,197.557,267.363z"/>
				</g>
				<path style="fill:#FFBAA8;" d="M237.946,296.544c0,0,6.048-2.194,13.027-1.158c6.979,1.036,18.343,10.806,18.343,10.806h-29.973
					L237.946,296.544z"/>
				<g>
					<defs>
						<path id="XMLID_4_" d="M137.632,219.464c-19.979,5.77-31.889,13.383-40.192,52.208c-4.62,21.602-13.076,29.773-13.076,29.773
							c29.382,23.355,55.046,15.331,55.046,15.331s1.53-13.309,7.52-24.091c7.33-13.194,20.673-10.384,21.123-24.541
							C168.634,249.899,160.257,234.907,137.632,219.464z"/>
					</defs>
					<use xlink:href="#XMLID_4_"  style="overflow:visible;fill:#D05234;"/>
					<clipPath id="XMLID_00000004547142160372361560000014367819426116661158_">
						<use xlink:href="#XMLID_4_"  style="overflow:visible;"/>
					</clipPath>
					<path style="clip-path:url(#XMLID_00000004547142160372361560000014367819426116661158_);fill:#BB4D33;" d="M129.182,277.638
						c-3.631-12.259-2.388-25.89,3.401-37.29c1.309,0.28,2.318,1.292,3.246,2.258c14.858,15.468,29.715,30.935,44.573,46.403
						c-7.507,7.395-18.087,20.7-29.971,16.318C139.962,301.468,132.157,287.683,129.182,277.638z"/>
				</g>
				<path style="fill:#D05234;" d="M148.934,230.762l34.787,47.941c0,0,49.481,13.745,56.959,15.266
					c3.989,5.709,5.384,16.813,5.384,16.813s-57.298-0.488-73.3-6.843c-16.002-6.355-40.727-31.447-46.858-48.56
					C119.777,238.268,129.244,223.953,148.934,230.762z"/>
				<path style="fill:#FFBAA8;" d="M199.914,214c-2.583,9.944-9.33,16.041-15.954,17.125c-6.624,1.077-15.326-7.086-15.326-7.086
					l-5.01,7.6l-3.861,6.163c-15.382-4.694-22.131-18.339-22.131-18.339l10.404-3.975l11.826-14.196
					c-6.785-2.406-4.902-12.076-2.762-15.063c2.134-2.994,6.807-3.4,8.73,0.44c1.924,3.847-1.266,11.314-1.266,11.314
					c7.373,0.15,12.897-12.81,12.897-12.81c10.654,9.842,21.054,10.518,28.779,8.235C206.243,203.038,201.807,206.713,199.914,214z"
					/>
				<path style="fill:#FD9C93;" d="M195.668,204.663c0,0-0.925,10.245-1.337,11.961c-0.412,1.715-6.469-2.044-6.469-2.044
					S191.291,208.357,195.668,204.663z"/>
				<g>
					<path style="fill:#FD9C93;" d="M164.24,190.133c-0.2-1.5-0.853-3.072-2.193-3.776c-0.45-0.236-0.986-0.36-1.472-0.211
						c-0.486,0.149-0.889,0.624-0.841,1.131c0.038,0.393,0.324,0.721,0.644,0.952c0.321,0.231,0.687,0.394,1.002,0.632
						c0.71,0.538,1.09,1.409,1.307,2.273c0.174,0.689,0.263,1.412,0.138,2.111c-0.193,1.074-0.862,1.962-1.502,2.814
						c-0.276,0.367-1.484,1.525-0.794,1.867c0.553,0.274,1.59-0.357,1.938-0.738c0.733-0.803,1.188-2.06,1.477-3.088
						C164.307,192.815,164.417,191.458,164.24,190.133z"/>
					<path style="fill:#FD9C93;" d="M163.368,190.626c-0.455-0.371-1.109-0.38-1.683-0.254c-0.741,0.162-1.437,0.521-2,1.028
						c-0.322,0.291-0.62,0.731-0.453,1.131c0.045,0.107,0.129,0.206,0.243,0.233c0.143,0.033,0.285-0.055,0.403-0.143
						c0.288-0.215,0.557-0.456,0.86-0.648c0.837-0.53,1.923-0.647,2.853-0.306"/>
				</g>
				<path style="fill:#2C1A52;" d="M190.301,206.208c-0.065,0-0.132-0.018-0.19-0.056c-0.162-0.105-0.208-0.322-0.103-0.484
					c0.009-0.014,0.892-1.398,0.607-2.563c-0.119-0.485-0.419-0.858-0.919-1.142c-2.038-1.157-4.26,1.236-4.282,1.26
					c-0.13,0.142-0.351,0.153-0.494,0.023c-0.143-0.13-0.153-0.351-0.024-0.494c0.106-0.116,2.619-2.828,5.145-1.398
					c0.668,0.379,1.09,0.913,1.254,1.587c0.356,1.46-0.657,3.04-0.7,3.107C190.527,206.152,190.415,206.208,190.301,206.208z"/>
				<path style="fill:#2C1A52;" d="M200.003,210.787c-0.038,0-0.077-0.007-0.115-0.02c-0.182-0.064-0.278-0.263-0.215-0.445
					c0.008-0.023,0.783-2.3-0.449-2.756c-1.284-0.473-2.055,1.055-2.088,1.121c-0.085,0.172-0.295,0.243-0.468,0.159
					c-0.173-0.085-0.245-0.294-0.16-0.467c0.367-0.751,1.459-2.026,2.958-1.469c1.874,0.693,0.909,3.523,0.867,3.643
					C200.283,210.697,200.147,210.787,200.003,210.787z"/>
				<path style="fill:#4674BA;" d="M185.928,196.072c-0.31,1.39,7.013,2.747,7.253,1.317
					C193.421,195.958,186.383,194.03,185.928,196.072z"/>
				<path style="fill:#4674BA;" d="M199.833,201.661c-1.076,0.933,4.002,6.38,5.046,5.373
					C205.923,206.027,201.414,200.29,199.833,201.661z"/>
				<path style="fill:#FFFFFF;" d="M182.384,211.279c0,0-4.37,7.598,4.744,9.854C185.491,217.96,182.384,211.279,182.384,211.279z"
					/>
				<path style="fill:#FD9C93;" d="M168.634,224.04l-5.01,7.6c-6.386-4.645-4.566-10.895-0.376-19.702
					C163.821,218.464,168.634,224.04,168.634,224.04z"/>
				<path style="fill:#FD9C93;" d="M182.555,205.115c0,2.024-1.641,3.665-3.665,3.665s-3.665-1.641-3.665-3.665
					s1.641-3.665,3.665-3.665S182.555,203.091,182.555,205.115z"/>
				<path style="fill:#529BCF;" d="M177.001,181.044c0,0,2.898,13.027-5.064,18.609c3.669-5.118,4.307-12.023,3.29-13.572"/>
			</g>
			<g>
				<g>
					<rect x="198.984" y="310.868" style="fill:#D8D8DA;" width="13.259" height="133.897"/>
					<rect x="198.984" y="310.868" style="fill:#C6C6C9;" width="13.259" height="18.553"/>
					<path style="fill:#D8D8DA;" d="M228.194,448.685h-45.162l0,0c0-6.984,5.661-12.645,12.645-12.645h19.872
						C222.533,436.04,228.194,441.702,228.194,448.685L228.194,448.685z"/>
				</g>
				<g>
					<rect x="421.207" y="310.868" style="fill:#D8D8DA;" width="13.259" height="133.897"/>
					<rect x="421.207" y="310.868" style="fill:#C6C6C9;" width="13.259" height="18.553"/>
					<path style="fill:#D8D8DA;" d="M450.418,448.685h-45.162l0,0c0-6.984,5.661-12.645,12.645-12.645h19.872
						C444.757,436.04,450.418,441.702,450.418,448.685L450.418,448.685z"/>
				</g>
				<rect x="172.765" y="303.94" style="fill:#D8D8DA;" width="281.151" height="13.856"/>
			</g>
			<g>
				<path style="fill:#EBEBEC;" d="M257.704,140.615h-39.516c-4.312,0-7.807-3.495-7.807-7.807v-23.024
					c0-4.312,3.495-7.807,7.807-7.807h39.516c4.312,0,7.807,3.495,7.807,7.807v23.024
					C265.511,137.12,262.016,140.615,257.704,140.615z"/>
				<polyline style="fill:#EBEBEC;" points="219.453,131.894 219.453,154.656 239.014,135.096 				"/>
			</g>
			<g>
				<g>
					<rect x="81.297" y="351.419" style="fill:#D8D8DA;" width="11.25" height="70.634"/>
					<path style="fill:#D8D8DA;" d="M127.19,448.672h-11.192c0-12.684-17.388-17.288-29.076-17.288s-29.075,4.604-29.075,17.288
						H46.655c0-9.372,5.115-17.341,14.404-22.44c6.993-3.838,16.42-6.04,25.864-6.04s18.87,2.202,25.864,6.04
						C122.074,431.331,127.19,439.3,127.19,448.672z"/>
				</g>
				<path style="fill:#B6B6BA;" d="M121.618,356.227H52.226c-4.438,0-8.036-3.598-8.036-8.036l0,0c0-4.438,3.598-8.036,8.036-8.036
					h69.392c4.438,0,8.036,3.598,8.036,8.036l0,0C129.655,352.629,126.057,356.227,121.618,356.227z"/>
			</g>
			<g>
				<path style="fill:#FFE298;" d="M122.892,409.507l-10.707,12.785l23.703,25.108c0,0,1.234-5.037-0.616-11.473
					c-1.094-3.805-3.475-11.021-3.475-11.021l4.354-5.087"/>
				<g>
					<defs>
						<path id="XMLID_5_" d="M84.364,301.444c0,0-15.446,14.919-6.123,31.047c9.322,16.128,81.001,25.637,81.001,25.637
							l-38.092,49.94c0,0,2.2,10.016,15.343,13.984c0,0,67.023-53.649,67.023-73.025c0-12.899-21.132-20.689-55.661-29.881
							c-1.686-0.449-6.762-1.92-8.444-2.372C104.783,318.106,84.364,301.444,84.364,301.444z"/>
					</defs>
					<use xlink:href="#XMLID_5_"  style="overflow:visible;fill:#372661;"/>
					<clipPath id="XMLID_00000112632422099510604850000003816631297366738817_">
						<use xlink:href="#XMLID_5_"  style="overflow:visible;"/>
					</clipPath>
					<path style="opacity:0.47;clip-path:url(#XMLID_00000112632422099510604850000003816631297366738817_);fill:#2C1A52;" d="
						M79.883,297.379c-3.642,4.982-2.52,12.296,1.165,17.245c3.685,4.95,9.38,7.971,15.073,10.352
						c18.404,7.698,32.182,12.401,51.995,14.731c7.164,0.843,14.37,1.666,21.305,3.652c2.716,0.778,5.897,2.418,5.851,5.243
						c-0.019,1.169-0.629,2.237-1.228,3.241c-16.526,27.697-33.612,42.743-55.003,67.263c-2.346-9.922-1.491-5.429-5.126-14.954
						c-3.316-8.69-1.027-16.018-7.776-22.42c-8.58-8.138-20.655-15.142-29.635-22.836c-14.828-12.704-18.082-36.879-7.142-53.052"/>
				</g>
			</g>
		</g>
		<g>
			<path style="fill:#EBEBEC;" d="M444.842,160.805h-66.829c-4.312,0-7.807-3.495-7.807-7.807v-42.167
				c0-4.312,3.495-7.807,7.807-7.807h66.829c4.312,0,7.807,3.495,7.807,7.807v42.167
				C452.649,157.309,449.154,160.805,444.842,160.805z"/>
			<polyline style="fill:#EBEBEC;" points="383.773,147.762 383.773,181.802 413.024,152.551 			"/>
		</g>
		<g>
			<path style="fill:#529BCF;" d="M357.788,363.655c-3.916-5.763-3.133-13.813-7.18-19.484c-2.37-3.321-6.148-5.437-8.479-8.785
				c-2.389-3.432-3.013-7.792-5.001-11.471c-1.988-3.68-5.242-6.506-7.596-9.963c-2.354-3.457-3.719-8.203-1.508-11.753
				c3.03-4.865,10.734-4.138,15.165-0.504c4.432,3.634,6.851,9.117,10.409,13.61c4.457,5.628,10.722,9.717,14.671,15.712
				c2.611,3.963,4.07,8.553,5.499,13.078c1.908,6.042,6.607,19.472,0.42,24.684C369.411,372.804,360.717,367.966,357.788,363.655z"
				/>
			<path style="fill:#529BCF;" d="M382.905,353.465c0.288-4.954,1.527-9.892,0.986-14.825c-0.538-4.901-2.756-10.141-0.449-14.499
				c1.086-2.051,3.015-3.497,4.556-5.234c2.735-3.084,4.214-7.048,5.751-10.873s3.277-7.733,6.358-10.472
				c3.081-2.739,7.866-3.984,11.399-1.861c4.928,2.961,4.766,10.035,3.991,15.732c-0.657,4.829-1.315,9.659-1.972,14.488
				c-0.574,4.215-1.187,8.55-3.303,12.24c-1.572,2.741-3.902,4.991-5.434,7.754c-1.934,3.49-2.478,7.574-4.026,11.252
				c-1.602,3.806-7.671,12.844-12.897,11.247C383.233,366.998,382.69,357.157,382.905,353.465z"/>
			<path style="fill:#529BCF;" d="M402.013,359.888c1.74-2.729,4.298-4.817,6.802-6.869c2.504-2.051,5.045-4.168,6.732-6.93
				c1.078-1.765,1.777-3.75,2.944-5.458c1.036-1.518,2.432-2.789,4.04-3.679c0.477-0.264,1-0.501,1.544-0.466
				c1.25,0.078,1.953,1.458,2.288,2.665c1.275,4.587,0.878,9.62-1.101,13.951c-1.644,3.597-4.291,6.636-6.262,10.065
				c-2.504,4.358-5.747,11.511-12.016,10.875C399.941,373.328,398.902,364.768,402.013,359.888z"/>
			<path style="fill:#2C1A52;" d="M374.386,386.048c-0.358,0-0.663-0.273-0.696-0.636c-1.867-20.509-9.802-40.799-22.344-57.132
				c-0.235-0.307-0.178-0.746,0.129-0.981c0.306-0.235,0.745-0.178,0.981,0.128c12.702,16.54,20.738,37.088,22.629,57.857
				c0.035,0.385-0.249,0.725-0.633,0.76C374.429,386.048,374.408,386.048,374.386,386.048z"/>
			<path style="fill:#2C1A52;" d="M385.773,403.746c-0.372,0-0.681-0.293-0.698-0.668c-0.941-21.093,1.446-42.103,7.094-62.447
				c1.938-6.979,4.558-15.068,9.3-22.135c0.216-0.32,0.65-0.407,0.971-0.191c0.321,0.215,0.406,0.65,0.191,0.971
				c-4.632,6.902-7.206,14.857-9.114,21.729c-5.608,20.202-7.979,41.065-7.044,62.009c0.017,0.386-0.282,0.713-0.668,0.73
				C385.794,403.746,385.783,403.746,385.773,403.746z"/>
			<path style="fill:#2C1A52;" d="M394.467,389.966c-0.055,0-0.111-0.006-0.167-0.02c-0.375-0.092-0.605-0.471-0.513-0.846
				c3.18-12.996,9.831-24.895,19.233-34.411c0.272-0.274,0.715-0.278,0.989-0.005c0.275,0.271,0.278,0.714,0.006,0.989
				c-9.224,9.336-15.749,21.011-18.87,33.76C395.068,389.752,394.782,389.966,394.467,389.966z"/>
			<rect x="355.369" y="376.725" style="fill:#4E3D78;" width="59.769" height="71.96"/>
			<rect x="355.369" y="396.5" style="fill:#2C1A52;" width="59.769" height="7.797"/>
			<rect x="355.369" y="421.609" style="fill:#2C1A52;" width="59.769" height="7.797"/>
		</g>
		<g>
			<rect x="44.19" y="47.067" style="fill:#C6C6C9;" width="57.359" height="70.461"/>
			<rect x="51.803" y="54.414" style="fill:#FFFFFF;" width="42.133" height="55.769"/>
			<rect x="55.861" y="58.295" style="fill:#FFE298;" width="34.017" height="48.005"/>
		</g>
		<g>
			<rect x="44.19" y="128.317" style="fill:#C6C6C9;" width="57.359" height="44.013"/>
			<rect x="51.803" y="135.662" style="fill:#FFFFFF;" width="42.133" height="29.321"/>
			<rect x="55.861" y="139.544" style="fill:#B7DAF2;" width="34.017" height="21.557"/>
		</g>
		<g>
			<g>
				<defs>
					<polygon id="XMLID_8_" points="442.922,303.94 426.011,303.94 423.213,274.562 445.72,274.562 					"/>
				</defs>
				<use xlink:href="#XMLID_8_"  style="overflow:visible;fill:#FFE298;"/>
				<clipPath id="XMLID_00000160157540432159514870000004749936896511131054_">
					<use xlink:href="#XMLID_8_"  style="overflow:visible;"/>
				</clipPath>
				
					<rect x="421.207" y="282.994" style="clip-path:url(#XMLID_00000160157540432159514870000004749936896511131054_);fill:#E8904D;" width="30.479" height="11.635"/>
				<path style="clip-path:url(#XMLID_00000160157540432159514870000004749936896511131054_);fill:#FFFFFF;" d="M434.339,289.12
					c0,2-1.621,3.621-3.621,3.621c-2,0-3.621-1.621-3.621-3.621c0-2,1.621-3.621,3.621-3.621
					C432.718,285.499,434.339,287.12,434.339,289.12z"/>
			</g>
			<rect x="421.207" y="272.343" style="fill:#2C1A52;" width="26.263" height="4.438"/>
			<rect x="426.085" y="268.637" style="fill:#2C1A52;" width="16.509" height="4.438"/>
		</g>
	</g>
</g>
</svg>
