<?xml version="1.0" encoding="iso-8859-1"?>
<!-- Uploaded to: SVG Repo, www.svgrepo.com, Generator: SVG Repo Mixer Tools -->
<svg height="800px" width="800px" version="1.1" id="Layer_1" xmlns="http://www.w3.org/2000/svg" xmlns:xlink="http://www.w3.org/1999/xlink" 
	 viewBox="0 0 227.623 227.623" xml:space="preserve">
<g>
	<path style="fill:#00558D;" d="M178.659,209.17c1.054,1.833,0.963,4.354-1.329,5.775c-28.463,17.646-68.706,19.113-89.698-10.038
		c-19.205-26.676-23.926-68.156-16.409-101.295c-1.788-0.183-3.529-0.458-5.271-0.688c-3.804-0.458-7.608-1.054-11.367-1.879
		c-1.558,1.742-4.95,1.375-5.5-1.192c-1.283-5.867-0.596-12.1-0.504-18.059c0.092-5.958-0.275-12.146,1.237-17.921
		c0.275-1.192,1.238-1.833,2.292-1.971c2.154-2.292,5.5-3.025,8.158-4.629c5.775-3.483,10.771-8.663,14.896-13.934
		C83.919,32.065,87.173,19.827,89.74,6.168c0.183-1.1,0.733-1.787,1.375-2.338c0-0.046,0.046-0.092,0.046-0.092
		c0.046-0.046,0.137-0.092,0.183-0.092c0.183-0.138,0.367-0.275,0.55-0.367c4.4-3.254,10.221-3.163,15.63-3.254
		c6.875-0.092,14.163,0,20.855,1.604c2.108,0.504,3.392,2.154,3.392,3.85c1.146,17.188,1.283,34.697,1.192,52.16
		c12.88-1.467,26.997-0.825,39.28,0.917c2.154,0.275,3.025,1.925,2.979,3.621c0.321,0.55,0.55,1.146,0.596,1.925
		c0.871,10.588,2.933,26.584-2.383,36.301c-0.458,0.871-1.192,1.283-1.971,1.375c-0.504,0.917-1.329,1.65-2.475,1.879
		c-11.642,2.108-25.392,1.008-37.768-1.421c-0.046,11.963-0.458,23.926-0.321,35.843c0.183,15.217,4.171,61.969,36.209,42.443
		c3.025-1.833,5.821,0.046,6.738,2.613c2.933,3.804,3.163,9.304,3.942,14.025C178.43,200.874,179.851,205.457,178.659,209.17z"/>
</g>
</svg>