<?xml version="1.0" encoding="iso-8859-1"?>
<!-- Uploaded to: SVG Repo, www.svgrepo.com, Generator: SVG Repo Mixer Tools -->
<svg height="800px" width="800px" version="1.1" id="Layer_1" xmlns="http://www.w3.org/2000/svg" xmlns:xlink="http://www.w3.org/1999/xlink" 
	 viewBox="0 0 490 490" xml:space="preserve">
<g>
	<g>
		<path style="fill:#507FBE;" d="M480,30v430c0,10.996-9.004,20-20,20H30c-10.996,0-20-9.004-20-20V30c0-11.001,9.004-20,20-20h430
			C470.996,10,480,18.999,480,30z"/>
	</g>
	<g id="XMLID_17_">
		<g>
			<path style="fill:#FFFFFF;" d="M355,345v60c0,0,0,20-85,20s-100-70-100-70V210h-40v-55c60-5,75-95,75-95h55v90h85v65h-85v120
				C302.5,377.5,355,345,355,345z"/>
		</g>
		<g>
			<path style="fill:#231F20;" d="M460,0H30C13.458,0,0,13.458,0,30v430c0,16.542,13.458,30,30,30h430c16.542,0,30-13.458,30-30V30
				C490,13.458,476.542,0,460,0z M470,460c0,5.514-4.486,10-10,10H30c-5.514,0-10-4.486-10-10V30c0-5.514,4.486-10,10-10h430
				c5.514,0,10,4.486,10,10V460z"/>
			<path style="fill:#231F20;" d="M359.881,336.288c-3.154-1.77-7.03-1.691-10.117,0.192c-0.17,0.104-17.291,10.4-38.53,10.401
				c-15.446,0.001-29.299-5.436-41.233-16.173V225h75c5.522,0,10-4.477,10-10v-65c0-5.523-4.478-10-10-10h-75V60
				c0-5.523-4.478-10-10-10h-55c-4.889,0-9.061,3.534-9.864,8.356c-0.137,0.823-14.318,82.374-65.966,86.679
				c-5.184,0.432-9.17,4.765-9.17,9.965v55c0,5.523,4.478,10,10,10h30v135c0,0.704,0.074,1.407,0.222,2.095
				c0.174,0.811,4.44,20.095,20.176,39.252C194.882,413.98,222.185,435,270,435c36.734,0,63.19-3.685,78.633-10.952
				C363.819,416.901,365,407.662,365,405v-60C365,341.384,363.034,338.058,359.881,336.288z M345,402.895
				C342.376,405.36,328.365,415,270,415c-71.372,0-87.929-53.244-90-61.189V210c0-5.523-4.477-10-10-10h-30v-36.4
				c49.162-10.677,67.818-71.057,73.13-93.6H250v80c0,5.523,4.477,10,10,10h75v45h-75c-5.523,0-10,4.477-10,10v120
				c0,2.652,1.054,5.196,2.929,7.071c16.465,16.464,36.082,24.812,58.306,24.811c13.253-0.001,25.06-3.07,33.766-6.27L345,402.895
				L345,402.895z"/>
		</g>
	</g>
</g>
</svg>