<svg xmlns="http://www.w3.org/2000/svg" width="24" height="24" viewBox="0 0 24 24" id="video-camera"><g stroke-width=".772" transform="translate(-692.99 -13.714) scale(1.29584)"><path fill="#06f" d="m 544.03799,10.583355 c -5.17205,-0.008 -9.25759,1.726339 -9.25759,9.2604 0,7.524773 4.084,9.259761 9.26041,9.260405 5.17641,-6.44e-4 9.26041,-1.735632 9.26041,-9.260405 0,-7.534061 -4.08554,-9.268362 -9.25755,-9.2604 h -0.003 z"></path><path fill="#fdfbe5" d="m 539.22256,16.705115 h 7.31198 c 0.49679,0 0.89675,0.399951 0.89675,0.896751 v 4.483756 c 0,0.496799 -0.39996,0.89675 -0.89675,0.89675 h -7.31198 c -0.4968,0 -0.89675,-0.399951 -0.89675,-0.89675 v -4.483756 c 0,-0.4968 0.39995,-0.896751 0.89675,-0.896751 z"></path><path fill="#f8d307" d="m 549.60146,17.116413 c -0.21138,-0.01691 -1.40249,1.24383 -2.03604,2.074212 v 1.319585 c 0.66296,0.862121 1.93762,2.191334 2.06422,2.050721 0.17187,-0.190861 0.16639,-5.244976 -0.006,-5.434534 -0.006,-0.0059 -0.013,-0.0092 -0.0223,-0.01 z"></path></g></svg>